<mxfile host="app.diagrams.net" modified="2023-11-13T08:20:00.547Z" agent="Mozilla/5.0 (Windows NT 10.0; Win64; x64; rv:109.0) Gecko/20100101 Firefox/119.0" etag="zr-aEjZQOidgONO9dwAG" version="22.1.0" type="device">
  <diagram name="Page-1" id="OSKZ7dzutCBJ_VSDLZK8">
    <mxGraphModel dx="1114" dy="579" grid="1" gridSize="10" guides="1" tooltips="1" connect="1" arrows="1" fold="1" page="1" pageScale="1" pageWidth="850" pageHeight="1100" math="0" shadow="0">
      <root>
        <mxCell id="0" />
        <mxCell id="1" parent="0" />
        <mxCell id="SpfUX8T7njl0s4gTno6L-22" style="edgeStyle=orthogonalEdgeStyle;rounded=0;orthogonalLoop=1;jettySize=auto;html=1;exitX=1;exitY=0.5;exitDx=0;exitDy=0;entryX=0;entryY=0.5;entryDx=0;entryDy=0;endArrow=none;endFill=0;" parent="1" source="SpfUX8T7njl0s4gTno6L-1" target="SpfUX8T7njl0s4gTno6L-21" edge="1">
          <mxGeometry relative="1" as="geometry" />
        </mxCell>
        <mxCell id="SpfUX8T7njl0s4gTno6L-27" style="edgeStyle=orthogonalEdgeStyle;rounded=0;orthogonalLoop=1;jettySize=auto;html=1;exitX=1;exitY=0.5;exitDx=0;exitDy=0;entryX=0;entryY=0.5;entryDx=0;entryDy=0;endArrow=none;endFill=0;" parent="1" source="SpfUX8T7njl0s4gTno6L-1" target="SpfUX8T7njl0s4gTno6L-26" edge="1">
          <mxGeometry relative="1" as="geometry" />
        </mxCell>
        <mxCell id="SpfUX8T7njl0s4gTno6L-29" style="edgeStyle=orthogonalEdgeStyle;rounded=0;orthogonalLoop=1;jettySize=auto;html=1;exitX=1;exitY=0.5;exitDx=0;exitDy=0;entryX=0;entryY=0.5;entryDx=0;entryDy=0;endArrow=none;endFill=0;" parent="1" source="SpfUX8T7njl0s4gTno6L-1" target="SpfUX8T7njl0s4gTno6L-2" edge="1">
          <mxGeometry relative="1" as="geometry" />
        </mxCell>
        <mxCell id="SpfUX8T7njl0s4gTno6L-1" value="&lt;div style=&quot;font-size: 14px;&quot;&gt;&lt;font style=&quot;font-size: 14px;&quot;&gt;pg_methods&lt;/font&gt;&lt;/div&gt;&lt;div style=&quot;font-size: 14px;&quot;&gt;&lt;font style=&quot;font-size: 14px;&quot;&gt;object&lt;font style=&quot;font-size: 14px;&quot;&gt;&lt;br&gt;&lt;/font&gt;&lt;/font&gt;&lt;/div&gt;" style="rounded=1;whiteSpace=wrap;html=1;fillColor=#fff2cc;strokeColor=#d6b656;strokeWidth=2;" parent="1" vertex="1">
          <mxGeometry x="80" y="110" width="120" height="60" as="geometry" />
        </mxCell>
        <mxCell id="SpfUX8T7njl0s4gTno6L-18" style="edgeStyle=orthogonalEdgeStyle;rounded=0;orthogonalLoop=1;jettySize=auto;html=1;exitX=1;exitY=0.5;exitDx=0;exitDy=0;entryX=0;entryY=0.5;entryDx=0;entryDy=0;endArrow=none;endFill=0;" parent="1" source="SpfUX8T7njl0s4gTno6L-2" target="SpfUX8T7njl0s4gTno6L-11" edge="1">
          <mxGeometry relative="1" as="geometry" />
        </mxCell>
        <mxCell id="SpfUX8T7njl0s4gTno6L-19" style="edgeStyle=orthogonalEdgeStyle;rounded=0;orthogonalLoop=1;jettySize=auto;html=1;exitX=1;exitY=0.5;exitDx=0;exitDy=0;entryX=0;entryY=0.5;entryDx=0;entryDy=0;endArrow=none;endFill=0;" parent="1" source="SpfUX8T7njl0s4gTno6L-2" target="SpfUX8T7njl0s4gTno6L-4" edge="1">
          <mxGeometry relative="1" as="geometry" />
        </mxCell>
        <mxCell id="SpfUX8T7njl0s4gTno6L-30" style="edgeStyle=orthogonalEdgeStyle;rounded=0;orthogonalLoop=1;jettySize=auto;html=1;exitX=1;exitY=0.5;exitDx=0;exitDy=0;entryX=0;entryY=0.5;entryDx=0;entryDy=0;endArrow=none;endFill=0;" parent="1" source="SpfUX8T7njl0s4gTno6L-2" target="SpfUX8T7njl0s4gTno6L-3" edge="1">
          <mxGeometry relative="1" as="geometry" />
        </mxCell>
        <mxCell id="SpfUX8T7njl0s4gTno6L-2" value="&lt;div style=&quot;font-size: 14px;&quot;&gt;&lt;i&gt;dynamic&lt;/i&gt;&lt;/div&gt;&lt;div style=&quot;font-size: 14px;&quot;&gt;&lt;i&gt;method_name &lt;br&gt;&lt;/i&gt;&lt;/div&gt;" style="rounded=1;whiteSpace=wrap;html=1;fillColor=#fff2cc;strokeColor=#d6b656;fontColor=#990000;strokeWidth=2;" parent="1" vertex="1">
          <mxGeometry x="240" y="184" width="120" height="60" as="geometry" />
        </mxCell>
        <mxCell id="SpfUX8T7njl0s4gTno6L-16" style="edgeStyle=orthogonalEdgeStyle;rounded=0;orthogonalLoop=1;jettySize=auto;html=1;exitX=1;exitY=0.5;exitDx=0;exitDy=0;entryX=0;entryY=0.5;entryDx=0;entryDy=0;endArrow=none;endFill=0;" parent="1" source="SpfUX8T7njl0s4gTno6L-3" target="SpfUX8T7njl0s4gTno6L-10" edge="1">
          <mxGeometry relative="1" as="geometry" />
        </mxCell>
        <mxCell id="SpfUX8T7njl0s4gTno6L-17" style="edgeStyle=orthogonalEdgeStyle;rounded=0;orthogonalLoop=1;jettySize=auto;html=1;exitX=1;exitY=0.5;exitDx=0;exitDy=0;entryX=0;entryY=0.5;entryDx=0;entryDy=0;endArrow=none;endFill=0;" parent="1" source="SpfUX8T7njl0s4gTno6L-3" target="SpfUX8T7njl0s4gTno6L-12" edge="1">
          <mxGeometry relative="1" as="geometry" />
        </mxCell>
        <mxCell id="SpfUX8T7njl0s4gTno6L-25" style="edgeStyle=orthogonalEdgeStyle;rounded=0;orthogonalLoop=1;jettySize=auto;html=1;exitX=1;exitY=0.5;exitDx=0;exitDy=0;entryX=0;entryY=0.5;entryDx=0;entryDy=0;endArrow=none;endFill=0;" parent="1" source="SpfUX8T7njl0s4gTno6L-3" target="SpfUX8T7njl0s4gTno6L-6" edge="1">
          <mxGeometry relative="1" as="geometry" />
        </mxCell>
        <mxCell id="SpfUX8T7njl0s4gTno6L-32" style="edgeStyle=orthogonalEdgeStyle;rounded=0;orthogonalLoop=1;jettySize=auto;html=1;exitX=1;exitY=0.5;exitDx=0;exitDy=0;entryX=0;entryY=0.5;entryDx=0;entryDy=0;endArrow=none;endFill=0;" parent="1" source="SpfUX8T7njl0s4gTno6L-3" target="SpfUX8T7njl0s4gTno6L-31" edge="1">
          <mxGeometry relative="1" as="geometry" />
        </mxCell>
        <mxCell id="SpfUX8T7njl0s4gTno6L-3" value="&lt;font style=&quot;font-size: 14px;&quot;&gt;query_object&lt;/font&gt;" style="rounded=1;whiteSpace=wrap;html=1;fillColor=#fff2cc;strokeColor=#d6b656;strokeWidth=2;" parent="1" vertex="1">
          <mxGeometry x="400" y="184" width="120" height="60" as="geometry" />
        </mxCell>
        <mxCell id="SpfUX8T7njl0s4gTno6L-4" value="&lt;font style=&quot;font-size: 14px;&quot;&gt;run()&lt;/font&gt;" style="ellipse;whiteSpace=wrap;html=1;fillColor=#d5e8d4;strokeColor=#82b366;strokeWidth=2;" parent="1" vertex="1">
          <mxGeometry x="400" y="329" width="120" height="50" as="geometry" />
        </mxCell>
        <mxCell id="SpfUX8T7njl0s4gTno6L-6" value="&lt;font style=&quot;font-size: 14px;&quot;&gt;name&lt;/font&gt;" style="rounded=0;whiteSpace=wrap;html=1;fillColor=#d5e8d4;strokeColor=#82b366;strokeWidth=2;" parent="1" vertex="1">
          <mxGeometry x="560" y="194" width="120" height="40" as="geometry" />
        </mxCell>
        <mxCell id="SpfUX8T7njl0s4gTno6L-10" value="&lt;font style=&quot;font-size: 14px;&quot;&gt;text&lt;/font&gt;" style="rounded=0;whiteSpace=wrap;html=1;fillColor=#d5e8d4;strokeColor=#82b366;strokeWidth=2;" parent="1" vertex="1">
          <mxGeometry x="560" y="254" width="120" height="40" as="geometry" />
        </mxCell>
        <mxCell id="SpfUX8T7njl0s4gTno6L-11" value="&lt;font style=&quot;font-size: 14px;&quot;&gt;returns&lt;/font&gt;" style="rounded=0;whiteSpace=wrap;html=1;fillColor=#d5e8d4;strokeColor=#82b366;strokeWidth=2;" parent="1" vertex="1">
          <mxGeometry x="400" y="268" width="120" height="40" as="geometry" />
        </mxCell>
        <mxCell id="SpfUX8T7njl0s4gTno6L-12" value="&lt;font style=&quot;font-size: 14px;&quot;&gt;values&lt;/font&gt;" style="rounded=0;whiteSpace=wrap;html=1;fillColor=#d5e8d4;strokeColor=#82b366;strokeWidth=2;" parent="1" vertex="1">
          <mxGeometry x="560" y="312" width="120" height="40" as="geometry" />
        </mxCell>
        <mxCell id="SpfUX8T7njl0s4gTno6L-21" value="&lt;div style=&quot;font-size: 14px;&quot;&gt;&lt;font style=&quot;font-size: 14px;&quot;&gt;&lt;b&gt;. . . &lt;/b&gt;&lt;br&gt;&lt;/font&gt;&lt;/div&gt;" style="rounded=1;whiteSpace=wrap;html=1;fillColor=#fff2cc;strokeColor=#d6b656;fontColor=#990000;shadow=0;glass=0;strokeWidth=2;" parent="1" vertex="1">
          <mxGeometry x="240" y="258" width="120" height="60" as="geometry" />
        </mxCell>
        <mxCell id="SpfUX8T7njl0s4gTno6L-28" value="" style="edgeStyle=orthogonalEdgeStyle;rounded=0;orthogonalLoop=1;jettySize=auto;html=1;exitX=1;exitY=0.5;exitDx=0;exitDy=0;endArrow=none;endFill=0;" parent="1" source="SpfUX8T7njl0s4gTno6L-1" target="SpfUX8T7njl0s4gTno6L-26" edge="1">
          <mxGeometry relative="1" as="geometry">
            <mxPoint x="200" y="140" as="sourcePoint" />
            <mxPoint x="410" y="70" as="targetPoint" />
          </mxGeometry>
        </mxCell>
        <mxCell id="SpfUX8T7njl0s4gTno6L-26" value="sql_import()" style="ellipse;whiteSpace=wrap;html=1;fillColor=#d5e8d4;strokeColor=#82b366;fontSize=14;strokeWidth=2;" parent="1" vertex="1">
          <mxGeometry x="240" y="115" width="120" height="50" as="geometry" />
        </mxCell>
        <mxCell id="SpfUX8T7njl0s4gTno6L-31" value="&lt;font color=&quot;#8c8c8c&quot;&gt;rowMode&lt;/font&gt;" style="rounded=0;whiteSpace=wrap;html=1;fillColor=#d5e8d4;strokeColor=#82b366;strokeWidth=2;fontColor=#9a9a9a;" parent="1" vertex="1">
          <mxGeometry x="560" y="370" width="120" height="40" as="geometry" />
        </mxCell>
      </root>
    </mxGraphModel>
  </diagram>
</mxfile>
